# xmcd
#
# Track frame offsets: 
#        150
#        15773
#        34418
#        48290
#        67137
#        84596
#        100439
#        120941
#        136811
#        152033
#        169988
#        188200
#
# Disc length: 2765 seconds
#
# Revision: 0
# Processed by: cddbd v1.5.2PL0 Copyright (c) Steve Scherf et al.
# Submitted via: ExactAudioCopy v1.2
#
DISCID=980acb0c
DTITLE=Ms Zeno the Mojo Queen - Back in Love
DYEAR=2018
DGENRE=Blues
TTITLE0=Back in Love
TTITLE1=In My Shoes
TTITLE2=That's How I Know
TTITLE3=Willie Brown
TTITLE4=Mojo Queen
TTITLE5=Rise Up
TTITLE6=Love Is Like a Flower
TTITLE7=Call My Name (feat. Gene Jackson)
TTITLE8=Gotta Get Paid
TTITLE9=Mistress
TTITLE10=Hot Sauce
TTITLE11=Father Time
EXTD=
EXTT0=
EXTT1=
EXTT2=
EXTT3=
EXTT4=
EXTT5=
EXTT6=
EXTT7=
EXTT8=
EXTT9=
EXTT10=
EXTT11=
PLAYORDER=
